# xmcd
#
# Track frame offsets:
#	150
#	18043
#	27812
#	44305
#	54513
#	68583
#	84189
#	97860
#	113176
#	122891
#
# Disc length: 1823 seconds
# Revision: 0
# Processed by: cddbd v1.5.2PL0 Copyright (c) Steve Scherf et al.
# Submitted via: dBpowerAMP V12.0
#
DISCID=6c071d0a
DTITLE=Britni Hendrickson - Almost Fifteen
DYEAR=2006
DGENRE=Country
TTITLE0=Handle With Care
TTITLE1=Country Sunshine
TTITLE2=Lizzie and The Rainman
TTITLE3=Deep Water
TTITLE4=Tell Me Something New
TTITLE5=Drive Me Crazy
TTITLE6=Rocky Top
TTITLE7=Killing Me With Those Love Songs
TTITLE8=Snow Bird
TTITLE9=Rollin' On Home For Christmas
EXTD=
EXTT0=
EXTT1=
EXTT2=
EXTT3=
EXTT4=
EXTT5=
EXTT6=
EXTT7=
EXTT8=
EXTT9=
PLAYORDER=
